<svg width="6.3499999" height="6.350000199999999" xmlns="http://www.w3.org/2000/svg">

 <g>
  <title>background</title>
  <rect fill="none" id="canvas_background" height="402" width="582" y="-1" x="-1"/>
 </g>
 <g>
  <title>Layer 1</title>
  <path fill="#309200" stroke-width="0.264583" stroke-miterlimit="4" stroke-dashoffset="0" id="rect4598" d="m1.05833,-56.545244c-0.58631,0 -1.05833,0.47202 -1.05833,1.05833l0,4.23334c0,0.58631 0.47202,1.05833 1.05833,1.05833l4.23334,0c0.58631,0 1.05833,-0.47202 1.05833,-1.05833l0,-4.23334c0,-0.58631 -0.47202,-1.05833 -1.05833,-1.05833l-4.23334,0zm5.0276,1.05833l2.64429,0c0.43516,0 0.7953,0.35808 0.7953,0.79324l0,2.64635c0,0.43516 -0.36014,0.79271 -0.7953,0.79271l-6.87762,0c-0.43516,0 -0.79478,-0.35755 -0.79478,-0.79271l0,-2.64635c0,-0.43516 0.35962,-0.79324 0.79478,-0.79324l4.23333,0zm0,0.52969c-0.15115,0 -0.26561,0.11239 -0.26561,0.26355l0,2.64635c0,0.15115 0.11446,0.26355 0.26561,0.26355l2.64429,0c0.15115,0 0.26613,-0.1124 0.26613,-0.26355l0,-2.64635c0,-0.15116 -0.11498,-0.26355 -0.26613,-0.26355l-2.64429,0zm2.38074,0.26406a0.26458,0.26458 0 0 1 0.26458,0.26459a0.26458,0.26458 0 0 1 -0.26458,0.26458a0.26458,0.26458 0 0 1 -0.26459,-0.26458a0.26458,0.26458 0 0 1 0.26459,-0.26459zm-5.29167,0.2651c0.58137,0 1.05833,0.47697 1.05833,1.05834c0,0.58136 -0.47696,1.05885 -1.05833,1.05885c-0.58137,0 -1.05885,-0.47749 -1.05885,-1.05885c0,-0.58137 0.47748,-1.05834 1.05885,-1.05834zm5.29167,0.26407c-0.29539,0 -0.52969,0.23378 -0.52969,0.52917c0,0.29538 0.2343,0.52968 0.52969,0.52968c0.29538,0 0.52916,-0.2343 0.52916,-0.52968c0,-0.29539 -0.23378,-0.52917 -0.52916,-0.52917z"/>
  <path fill="#309200" stroke-width="0.264583" stroke-miterlimit="4" stroke-dashoffset="0" id="rect5218" d="m1.05833,-0.000004c-0.58631,0 -1.05833,0.47202 -1.05833,1.05833l0,4.23334c0,0.58631 0.47202,1.05833 1.05833,1.05833l4.23334,0c0.58631,0 1.05833,-0.47202 1.05833,-1.05833l0,-4.23334c0,-0.58631 -0.47202,-1.05833 -1.05833,-1.05833l-4.23334,0zm2.11667,1.80196c1.94878,0 1.98648,0.0232 1.98437,1.37304c0.00212,1.34983 -0.03559,1.37304 -1.98437,1.37304c-1.94878,0 -1.98648,-0.0232 -1.98438,-1.37304c-0.00212,-1.34983 0.0356,-1.37304 1.98438,-1.37304zm-0.37672,0.75809l0,1.2299l0.9834,-0.61495l-0.9834,-0.61495z"/>
 </g>
</svg>